<svg xmlns="http://www.w3.org/2000/svg" viewBox="0 0 264.1 190.9"><defs><style>.cls-1{fill:#131313;}</style></defs><title>mp-logo</title><g id="Layer_2" data-name="Layer 2"><g id="Layer_1-2" data-name="Layer 1"><g id="mp"><path class="cls-1" d="M184.4,142.59c.3-9.7.8-19.4,1.1-29.2.3-11.3-.8-22.5-1.9-33.8-.3-3.2-.6-6.5-.9-9.7-.2-1.6-.3-3.3-.5-4.9a24.22,24.22,0,0,0-.7-4.7,11.37,11.37,0,0,0-1.3,3l-1.2,3.9c-.7,2.4-1.5,4.8-2.2,7.1L172.3,89c-3,9.5-5.8,19-10.1,27.9-1.7,3.5-3.3,7.7-6.9,9.8a8.77,8.77,0,0,1-9.1-.4c-3.6-2.2-6.2-6-8.4-9.5a59,59,0,0,1-5.6-11.6,90.14,90.14,0,0,1-3.9-14.4l-1.5-8.4c-.2-1.4-.5-2.8-.7-4.2a14,14,0,0,0-1.3-3.4c-6.3,16.8-8.2,34.9-11.4,52.4-.5,2.8-2.1,6.5-5.5,6.3s-4.6-4-4.8-6.9c-.6-9.1-1.2-18.2-2.2-27.2-.6-5-1.3-10.1-2.1-15.1-.4-2.6-.9-5.1-1.4-7.7a51.9,51.9,0,0,0-2.2-7,49.7,49.7,0,0,0-2.7,5.1,58.94,58.94,0,0,0-2.1,5.9c-1.3,3.9-2.5,7.9-3.5,11.9-2.1,8.1-3.7,16.3-5.4,24.4-1.7,8.4-3,16.9-4.4,25.3-.3,2.1-.7,4.3-1,6.4a13.41,13.41,0,0,1-1,4.4c-1.2,2.3-5,2.4-6.6.4a6,6,0,0,1-1.1-3.9V143c0-4.3.1-8.7-.2-13a236.14,236.14,0,0,0-3.3-25.1c-.8-4.1-1.6-8.2-2.6-12.3s-1.9-8.2-3.2-12.1A37.62,37.62,0,0,0,55.8,75c-.4-.8-1.1-2.1-2.1-2.1s-2,1.5-2.6,2.3a37.55,37.55,0,0,0-3.1,5c-3.7,6.7-6,14.1-8.4,21.5-2.6,8.2-5.1,16.4-7.6,24.6-2.5,8-4.8,16.1-8,23.9a59.62,59.62,0,0,1-5.4,10.7,38.08,38.08,0,0,1-7.4,7.6c-1.3,1.1-2.6,2.6-4.2,3.3a8.3,8.3,0,0,1-4.4.6c-1.1-.1-2.7-.5-2.6-1.9.1-1.2,1.5-1.6,2.4-2.1a27.44,27.44,0,0,0,7.4-6.6,32,32,0,0,0,5.1-8.5,119.69,119.69,0,0,0,3.9-11.5c1.4-4.1,2.7-8.3,4.1-12.4,2.6-8.2,5.2-16.3,7.7-24.5a191.25,191.25,0,0,1,7.8-22.4,85,85,0,0,1,5.5-10.3,16.86,16.86,0,0,1,7.9-6.8,7.43,7.43,0,0,1,7.2,1c2.6,2,3.8,5.1,4.7,8.1,2.5,8.1,4.5,16.4,6.6,24.7q.75,3,1.2,6a26.8,26.8,0,0,0,1.3,5.6c1.9-7,3.1-14.2,4.9-21.2a142.28,142.28,0,0,1,6.4-20.1A59.89,59.89,0,0,1,88.8,60c1.5-2.3,3.6-4.8,6.4-5.5,2.5-.6,4.6.9,5.9,2.9,1.9,2.9,2.9,6.5,3.8,9.7a95.56,95.56,0,0,1,2.6,11.8c.7,4,1.1,8.1,2.2,12A121.36,121.36,0,0,1,112.6,79c1.1-4,2.2-8,3.5-12a90.32,90.32,0,0,1,4.6-11.6c1.3-2.8,3.4-5.7,6.7-6a5.35,5.35,0,0,1,5.4,4,31.21,31.21,0,0,1,1.1,6.1c.3,2.1.5,4.2.7,6.3a181.68,181.68,0,0,0,3.6,24.4c1.8,7.8,4.5,15.5,9,22.1.6.8,1.1,1.7,1.7,2.5.4.5,1,1.2,1.7,1.1s1.1-1,1.4-1.6c.5-1,1-2,1.4-3,1.8-3.9,2.8-8.1,4.1-12.2,5.1-17.1,10.2-34.1,15.3-51.2,1.3-4.2,2.5-8.4,3.8-12.6.9-3.1,2.1-7.6,5.5-8.8,2.7-.9,6.1.4,7,3.2a31,31,0,0,1,.9,6.1c.3,2.1.5,4.3.8,6.4s.5,4.1.9,6.1a17.55,17.55,0,0,0,1.1-2.4c.3-1,.6-2.1.9-3.1.5-1.9,1.1-3.8,1.7-5.8a120.41,120.41,0,0,1,4-11.5c1.5-3.5,3.2-7.3,5.8-10.1,2.2-2.4,5.5-4.8,9-4.4s5.3,3.3,6.8,6.1c2.1,3.7,2.4,8.1,3,12.3,1.4,8.6,2.5,17.2,2,26-.1,2.2-.3,4.4-.4,6.7,0,.7-.7,3.6.6,3.6a3.08,3.08,0,0,0,1.2-.5,17.1,17.1,0,0,0,2.3-1.3,43.72,43.72,0,0,0,4.4-3.1c5.7-4.7,9.7-11.1,12.8-17.7a64.18,64.18,0,0,0,5.5-22,89.93,89.93,0,0,0-.5-12.7c-.2-2.7-.2-6.6,2.7-8s5.9,1.2,7.1,3.6a22.81,22.81,0,0,1,1.7,5.8,30.82,30.82,0,0,1,.7,6.1,86.61,86.61,0,0,1-3.8,23.2,72.35,72.35,0,0,1-10.6,20.2,49.77,49.77,0,0,1-16.4,14.9c-2.9,1.6-6.3,2.4-8.7,4.7s-3.5,5.8-5.4,8.6c-3.8,5.8-9.3,12.4-17,11.4-1.3-.2-3-1.1-4.3-.7s-1.2,1.9-1.3,2.9c-.5,4.4.1,8.8.5,13.2.8,8.8,1.5,17.6,1.9,26.5s.6,17.6.9,26.4c.1,4.4.2,8.9.4,13.3.1,3.4.2,7.5-3.1,9.6a4.92,4.92,0,0,1-6.7-1.3c-2.5-3.1-3.3-7.1-3.6-11-.7-8.4-1.2-16.7-1.7-25.1C184.8,149.39,184.6,146,184.4,142.59Zm27.5-116.3a4.94,4.94,0,0,0-1.6,1.9c-.4.8-.7,1.7-1.1,2.6-.8,1.9-1.5,3.7-2.1,5.6a106.49,106.49,0,0,0-3.2,11.4c-.9,3.8-1.7,7.7-2.5,11.6-.4,2-.8,3.9-1.1,5.9s-.4,4-.7,6c3.2-.4,6.4-.9,9.6-1.3,2.2-.3,4.3-.2,4.9-2.9a69.9,69.9,0,0,0,.9-8C217,31.49,212.4,27.19,211.9,26.29Zm-9,61.2a2.77,2.77,0,0,0,.9-.1c.5-.2.9-.9,1.3-1.2.9-.9,1.8-1.7,2.7-2.6.5-.5,2.2-1.6,1.8-2.3-.2-.4-.3-.3-.8-.2s-1.2.3-1.8.5c-1.1.3-2.3.6-3.4,1-.8.3-1.8.4-2.1,1.2a6,6,0,0,0-.2,2.3C201.5,86.89,202.3,87,202.9,87.49Z"/></g></g></g></svg>